Coordinates
version=1
nRows=38
nColumns=12
inDegrees=yes

Units are S.I. units (second, meters, Newtons, ...)
Angles are in degrees

endheader
time	SC_y	SC_z	SC_x	AC_y	AC_z	AC_x	GH_y	GH_z	GH_yy	EL_x	PS_y
       0.0              -48.12          17.76          4.662          47.19         -3.843         -7.629          40.59          49.91          121.5          53.73          45.98
   0.01415              -48.12          17.77          4.672          47.19         -3.844         -7.628          40.59          49.91          121.5          53.73          45.98
    0.0283              -48.12          17.77          4.683          47.19         -3.846         -7.626          40.59          49.91          121.5          53.73          45.97
   0.04246              -48.11          17.77          4.694          47.19         -3.848         -7.625          40.59          49.91          121.4          53.74          45.97
   0.05661              -48.11          17.77          4.706          47.19          -3.85         -7.623          40.59          49.91          121.4          53.74          45.96
   0.07076               -48.1          17.77          4.719          47.19         -3.852         -7.621          40.59          49.91          121.4          53.75          45.96
   0.08491               -48.1          17.78          4.733          47.19         -3.854         -7.619          40.59          49.91          121.3          53.75          45.96
   0.09907              -48.09          17.78          4.748          47.19         -3.856         -7.617          40.59          49.91          121.3          53.75          45.95
    0.1132              -48.09          17.78          4.763          47.19         -3.859         -7.615          40.59          49.91          121.3          53.76          45.95
    0.1274              -48.08          17.78           4.78          47.19         -3.862         -7.613          40.59          49.91          121.2          53.76          45.94
    0.1415              -48.08          17.79          4.798          47.18         -3.865          -7.61          40.59           49.9          121.2          53.77          45.93
    0.1557              -48.07          17.79          4.818          47.18         -3.868         -7.608          40.59           49.9          121.2          53.77          45.93
    0.1698              -48.06          17.79          4.839          47.18         -3.871         -7.605          40.59           49.9          121.1          53.78          45.92
     0.184              -48.06           17.8          4.862          47.18         -3.875         -7.602          40.59           49.9          121.1          53.79          45.91
    0.1981              -48.05           17.8          4.886          47.18         -3.879         -7.598          40.59           49.9          121.0           53.8           45.9
    0.2123              -48.04          17.81          4.913          47.18         -3.883         -7.594          40.59           49.9          120.9           53.8           45.9
    0.2264              -48.03          17.81          4.942          47.18         -3.888          -7.59          40.58          49.89          120.9          53.81          45.89
    0.2406              -48.02          17.82          4.974          47.17         -3.893         -7.586          40.58          49.89          120.8          53.82          45.88
    0.2547              -48.01          17.82          5.008          47.17         -3.899         -7.581          40.58          49.89          120.7          53.83          45.86
    0.2689              -47.99          17.83          5.046          47.17         -3.905         -7.576          40.58          49.89          120.7          53.84          45.85
     0.283              -47.98          17.84          5.087          47.17         -3.911          -7.57          40.58          49.88          120.6          53.85          45.84
    0.2972              -47.96          17.85          5.133          47.17         -3.919         -7.564          40.58          49.88          120.5          53.87          45.82
    0.3113              -47.95          17.85          5.183          47.16         -3.927         -7.557          40.58          49.88          120.3          53.88          45.81
    0.3255              -47.93          17.86          5.239          47.16         -3.936         -7.549          40.57          49.87          120.2           53.9          45.79
    0.3397              -47.91          17.88          5.301          47.16         -3.946         -7.541          40.57          49.87          120.1          53.92          45.77
    0.3538              -47.88          17.89          5.371          47.15         -3.957         -7.531          40.57          49.86          119.9          53.94          45.74
     0.368              -47.86           17.9          5.448          47.15          -3.97          -7.52          40.57          49.86          119.8          53.96          45.72
    0.3821              -47.83          17.92          5.535          47.14         -3.984         -7.508          40.56          49.85          119.6          53.99          45.69
    0.3963              -47.79          17.93          5.634          47.14           -4.0         -7.495          40.56          49.85          119.4          54.02          45.66
    0.4104              -47.75          17.95          5.746          47.13         -4.018         -7.479          40.56          49.84          119.1          54.05          45.62
    0.4246              -47.71          17.98          5.874          47.13         -4.039         -7.461          40.55          49.83          118.8          54.09          45.58
    0.4387              -47.66           18.0          6.021          47.12         -4.063         -7.441          40.55          49.82          118.5          54.13          45.53
    0.4529               -47.6          18.03           6.19          47.11          -4.09         -7.418          40.54          49.81          118.1          54.18          45.47
     0.467              -47.54          18.06          6.387           47.1         -4.122          -7.39          40.54          49.79          117.7          54.24          45.41
    0.4812              -47.46          18.11          6.617          47.09         -4.159         -7.359          40.53          49.78          117.2          54.31          45.33
    0.4953              -47.37          18.15          6.889          47.07         -4.203         -7.321          40.52          49.76          116.6          54.39          45.24
    0.5095              -47.26          18.21          7.211          47.06         -4.255         -7.276          40.51          49.74          115.9          54.48          45.13
    0.5236              -47.12          18.28          7.598          47.03         -4.318         -7.223          40.49          49.71          115.0           54.6           45.0
